<svg width="258" height="517" viewBox="0 0 414 691" fill="none" xmlns="http://www.w3.org/2000/svg">
<path fill-rule="evenodd" clip-rule="evenodd" d="M128.427 517.2C111.529 517.2 105.207 515.473 98.8449 512.071C92.5692 508.714 87.6858 503.831 84.3288 497.555C80.9268 491.193 79.1997 484.871 79.1997 467.973V191.349C79.1034 191.383 79.0017 191.4 78.9 191.4C78.4041 191.4 78 190.996 78 190.5V155.1C78 154.604 78.4041 154.2 78.9 154.2C79.0035 154.2 79.1043 154.217 79.1997 154.251V143.949C79.1034 143.983 79.0017 144 78.9 144C78.4041 144 78 143.596 78 143.1V107.7C78 107.204 78.4041 106.8 78.9 106.8C79.0035 106.8 79.1043 106.817 79.1997 106.852V89.3484C79.1034 89.3826 79.0017 89.3997 78.9 89.3997C78.4041 89.3997 78 88.9956 78 88.4997V70.4997C78 70.0038 78.4041 69.5997 78.9 69.5997C79.0035 69.5997 79.1043 69.6168 79.1997 69.651V49.2264C79.1997 32.328 80.9268 26.0064 84.3288 19.6443C87.6858 13.3686 92.5701 8.4843 98.8449 5.1291C105.205 1.7271 111.526 0 128.427 0H285.573C302.474 0 308.796 1.7271 315.155 5.1291C321.431 8.4843 326.314 13.3686 329.672 19.6443C333.073 26.0046 334.8 32.3262 334.8 49.2264V119.452C334.897 119.417 334.999 119.4 335.1 119.4C335.596 119.4 336 119.804 336 120.3V177.9C336 178.396 335.596 178.8 335.1 178.8C334.998 178.8 334.897 178.783 334.8 178.749V467.973C334.8 484.873 333.073 491.195 329.672 497.555C326.314 503.831 321.431 508.714 315.155 512.071C308.793 515.473 302.472 517.2 285.573 517.2H128.427ZM110.865 2.89167C106.675 3.62517 103.334 4.76907 99.6936 6.71577C93.7374 9.90177 89.1015 14.5377 85.9164 20.493C83.9697 24.1335 82.8258 27.4752 82.0914 31.6656C81.3363 35.973 80.9997 41.3892 80.9997 49.2264V467.973C80.9997 475.81 81.3363 481.227 82.0914 485.535C82.8258 489.725 83.9697 493.066 85.9164 496.706C89.1015 502.663 93.7374 507.298 99.6936 510.484C103.334 512.43 106.675 513.574 110.865 514.309C115.174 515.064 120.59 515.4 128.427 515.4H285.573C293.41 515.4 298.826 515.064 303.134 514.309C307.325 513.574 310.666 512.43 314.307 510.484C320.264 507.298 324.899 502.663 328.084 496.706C330.031 493.067 331.174 489.726 331.909 485.535C332.663 481.227 333 475.811 333 467.973V49.2264C333 41.3892 332.663 35.973 331.909 31.6656C331.174 27.4743 330.031 24.1335 328.084 20.493C324.899 14.5377 320.264 9.90267 314.307 6.71577C310.666 4.76907 307.325 3.62517 303.134 2.89167C298.826 2.13657 293.411 1.79997 285.573 1.79997H128.427C120.59 1.79997 115.174 2.13657 110.865 2.89167ZM127.411 513.6C112.096 513.6 106.367 512.035 100.603 508.952C94.9155 505.91 90.4902 501.484 87.4482 495.797C84.3657 490.032 82.7997 484.303 82.7997 468.988V48.2112C82.7997 32.8959 84.3657 27.1674 87.4482 21.4029C90.4902 15.7158 94.9155 11.2905 100.603 8.24847C106.367 5.16507 112.096 3.59997 127.411 3.59997H286.589C301.904 3.59997 307.632 5.16507 313.397 8.24847C319.086 11.2905 323.511 15.7167 326.551 21.4029C329.635 27.1674 331.2 32.8959 331.2 48.2112V468.988C331.2 484.303 329.635 490.032 326.551 495.797C323.511 501.484 319.085 505.91 313.397 508.952C307.632 512.035 301.904 513.6 286.589 513.6H127.411ZM111.536 6.38457C107.752 7.04697 104.737 8.07837 101.451 9.83517C96.0837 12.7062 91.9059 16.884 89.0349 22.2516C87.279 25.5366 86.2467 28.5525 85.5852 32.3361C84.9039 36.2268 84.5997 41.1228 84.5997 48.2112V468.988C84.5997 476.077 84.9039 480.973 85.5852 484.864C86.2467 488.648 87.279 491.664 89.0349 494.948C91.9068 500.317 96.0846 504.494 101.451 507.364C104.736 509.121 107.752 510.153 111.536 510.816C115.426 511.497 120.323 511.8 127.411 511.8H286.589C293.677 511.8 298.573 511.497 302.465 510.816C306.247 510.153 309.263 509.121 312.548 507.364C317.916 504.494 322.093 500.317 324.965 494.948C326.721 491.664 327.754 488.648 328.416 484.864C329.096 480.973 329.4 476.077 329.4 468.988V48.2112C329.4 41.1228 329.096 36.2268 328.416 32.3361C327.754 28.5516 326.721 25.5366 324.965 22.2516C322.094 16.884 317.917 12.7062 312.548 9.83517C309.263 8.07837 306.247 7.04697 302.465 6.38457C298.573 5.70327 293.677 5.39997 286.589 5.39997H127.411C120.323 5.39997 115.426 5.70327 111.536 6.38457ZM231 20.9997C231 19.0116 232.612 17.3997 234.6 17.3997C236.588 17.3997 238.2 19.0116 238.2 20.9997C238.2 22.9878 236.588 24.5997 234.6 24.5997C232.612 24.5997 231 22.9878 231 20.9997ZM193.5 22.7997C192.34 22.7997 191.4 21.8601 191.4 20.7C191.4 19.5399 192.34 18.6003 193.5 18.6003H220.5C221.66 18.6003 222.6 19.5399 222.6 20.7C222.6 21.8601 221.66 22.7997 220.5 22.7997H193.5Z" fill="black"/>
<path d="M143.733 15.4006C144.2 15.662 144.567 16.0455 144.816 16.5343C145.066 17.023 145.199 17.2265 145.199 18.0013C145.201 21.6132 145.841 23.6913 147.044 25.9402C148.247 28.1891 150.012 29.9541 152.261 31.1568C154.509 32.3595 157.024 33 161.471 33H253.731C258.177 33 260.692 32.3595 262.941 31.1568C265.19 29.9541 266.955 28.1891 268.158 25.9402C269.36 23.6913 270.001 21.6 270.001 18.0022C270.001 17.2244 270.124 17.0251 270.357 16.5359C270.589 16.0466 270.93 15.6627 271.364 15.401C271.798 15.1393 272.312 15 273.001 15H290.572C300.736 15 304.421 16.0582 308.137 18.0453C311.852 20.0324 314.768 22.9484 316.755 26.664C318.743 30.3795 319.801 34.065 319.801 44.2283V472.972C319.801 483.135 318.743 486.82 316.755 490.536C314.768 494.252 311.852 497.168 308.137 499.155C304.421 501.142 300.736 502.2 290.572 502.2H124.029C113.866 502.2 110.18 501.142 106.465 499.155C102.749 497.168 99.8332 494.252 97.8461 490.536C95.859 486.82 94.8008 483.135 94.8008 472.972V44.2283C94.8008 34.065 95.859 30.3795 97.8461 26.664C99.8332 22.9484 102.749 20.0324 106.465 18.0453C110.18 16.0582 113.866 15 124.029 15H141.973C142.713 15 143.266 15.1392 143.733 15.4006H143.733Z" fill="black"/>
<rect y="110" width="414" height="581" fill="url(#paint0_linear)"/>
<g filter="url(#filter0_d)">
<rect x="89" y="71" width="274" height="73" rx="21" fill="white"/>
</g>
<path d="M134.931 104H132.708L128.99 98.358V104H126.767V94.809H128.99L132.708 100.503V94.809H134.931V104ZM139.859 96.655C140.579 96.655 141.22 96.8067 141.783 97.11C142.355 97.4047 142.802 97.8337 143.122 98.397C143.452 98.9603 143.616 99.619 143.616 100.373C143.616 101.127 143.452 101.786 143.122 102.349C142.802 102.912 142.355 103.346 141.783 103.649C141.22 103.944 140.579 104.091 139.859 104.091C139.14 104.091 138.494 103.944 137.922 103.649C137.35 103.346 136.9 102.912 136.57 102.349C136.25 101.786 136.089 101.127 136.089 100.373C136.089 99.619 136.25 98.9603 136.57 98.397C136.9 97.8337 137.35 97.4047 137.922 97.11C138.494 96.8067 139.14 96.655 139.859 96.655ZM139.859 98.579C139.435 98.579 139.075 98.735 138.78 99.047C138.494 99.3503 138.351 99.7923 138.351 100.373C138.351 100.954 138.494 101.396 138.78 101.699C139.075 102.002 139.435 102.154 139.859 102.154C140.284 102.154 140.639 102.002 140.925 101.699C141.211 101.396 141.354 100.954 141.354 100.373C141.354 99.7923 141.211 99.3503 140.925 99.047C140.639 98.735 140.284 98.579 139.859 98.579ZM151.984 96.746V104H149.748V102.687C149.54 103.112 149.228 103.45 148.812 103.701C148.405 103.952 147.928 104.078 147.382 104.078C146.55 104.078 145.887 103.801 145.393 103.246C144.908 102.691 144.665 101.929 144.665 100.958V96.746H146.875V100.685C146.875 101.179 147.001 101.565 147.252 101.842C147.512 102.111 147.859 102.245 148.292 102.245C148.743 102.245 149.098 102.102 149.358 101.816C149.618 101.53 149.748 101.123 149.748 100.594V96.746H151.984ZM156.87 101.829L158.443 96.746H160.809L158.235 104H155.479L152.905 96.746H155.271L156.87 101.829ZM168.62 100.178C168.62 100.36 168.598 100.559 168.555 100.776H163.524C163.55 101.322 163.689 101.716 163.94 101.959C164.191 102.193 164.512 102.31 164.902 102.31C165.231 102.31 165.504 102.228 165.721 102.063C165.938 101.898 166.081 101.686 166.15 101.426H168.503C168.408 101.937 168.2 102.397 167.879 102.804C167.558 103.203 167.151 103.519 166.657 103.753C166.163 103.978 165.613 104.091 165.006 104.091C164.295 104.091 163.663 103.944 163.108 103.649C162.562 103.346 162.133 102.912 161.821 102.349C161.509 101.786 161.353 101.127 161.353 100.373C161.353 99.6103 161.505 98.9517 161.808 98.397C162.12 97.8337 162.553 97.4047 163.108 97.11C163.663 96.8067 164.295 96.655 165.006 96.655C165.725 96.655 166.358 96.8023 166.904 97.097C167.45 97.3917 167.87 97.8077 168.165 98.345C168.468 98.8737 168.62 99.4847 168.62 100.178ZM166.371 99.84C166.38 99.3633 166.25 99.008 165.981 98.774C165.721 98.5313 165.396 98.41 165.006 98.41C164.599 98.41 164.261 98.5313 163.992 98.774C163.723 99.0167 163.572 99.372 163.537 99.84H166.371ZM172.002 94.38V104H169.779V94.38H172.002ZM175.76 94.38V104H173.537V94.38H175.76ZM184.184 100.178C184.184 100.36 184.163 100.559 184.119 100.776H179.088C179.114 101.322 179.253 101.716 179.504 101.959C179.756 102.193 180.076 102.31 180.466 102.31C180.796 102.31 181.069 102.228 181.285 102.063C181.502 101.898 181.645 101.686 181.714 101.426H184.067C183.972 101.937 183.764 102.397 183.443 102.804C183.123 103.203 182.715 103.519 182.221 103.753C181.727 103.978 181.177 104.091 180.57 104.091C179.86 104.091 179.227 103.944 178.672 103.649C178.126 103.346 177.697 102.912 177.385 102.349C177.073 101.786 176.917 101.127 176.917 100.373C176.917 99.6103 177.069 98.9517 177.372 98.397C177.684 97.8337 178.118 97.4047 178.672 97.11C179.227 96.8067 179.86 96.655 180.57 96.655C181.29 96.655 181.922 96.8023 182.468 97.097C183.014 97.3917 183.435 97.8077 183.729 98.345C184.033 98.8737 184.184 99.4847 184.184 100.178ZM181.935 99.84C181.944 99.3633 181.814 99.008 181.545 98.774C181.285 98.5313 180.96 98.41 180.57 98.41C180.163 98.41 179.825 98.5313 179.556 98.774C179.288 99.0167 179.136 99.372 179.101 99.84H181.935ZM192.548 96.668C193.38 96.668 194.038 96.9453 194.524 97.5C195.018 98.0547 195.265 98.8173 195.265 99.788V104H193.042V100.048C193.042 99.5627 192.912 99.1857 192.652 98.917C192.4 98.6397 192.062 98.501 191.638 98.501C191.187 98.501 190.827 98.644 190.559 98.93C190.299 99.216 190.169 99.6233 190.169 100.152V104H187.946V96.746H190.169V98.072C190.377 97.6387 190.684 97.2963 191.092 97.045C191.508 96.7937 191.993 96.668 192.548 96.668ZM200.124 96.655C200.843 96.655 201.485 96.8067 202.048 97.11C202.62 97.4047 203.066 97.8337 203.387 98.397C203.716 98.9603 203.881 99.619 203.881 100.373C203.881 101.127 203.716 101.786 203.387 102.349C203.066 102.912 202.62 103.346 202.048 103.649C201.485 103.944 200.843 104.091 200.124 104.091C199.405 104.091 198.759 103.944 198.187 103.649C197.615 103.346 197.164 102.912 196.835 102.349C196.514 101.786 196.354 101.127 196.354 100.373C196.354 99.619 196.514 98.9603 196.835 98.397C197.164 97.8337 197.615 97.4047 198.187 97.11C198.759 96.8067 199.405 96.655 200.124 96.655ZM200.124 98.579C199.699 98.579 199.34 98.735 199.045 99.047C198.759 99.3503 198.616 99.7923 198.616 100.373C198.616 100.954 198.759 101.396 199.045 101.699C199.34 102.002 199.699 102.154 200.124 102.154C200.549 102.154 200.904 102.002 201.19 101.699C201.476 101.396 201.619 100.954 201.619 100.373C201.619 99.7923 201.476 99.3503 201.19 99.047C200.904 98.735 200.549 98.579 200.124 98.579ZM209.142 102.089V104H208.141C207.291 104 206.628 103.792 206.152 103.376C205.684 102.951 205.45 102.254 205.45 101.283V98.618H204.475V96.746H205.45V94.965H207.673V96.746H209.129V98.618H207.673V101.322C207.673 101.608 207.729 101.807 207.842 101.92C207.963 102.033 208.162 102.089 208.44 102.089H209.142ZM210.183 94.705C210.183 94.367 210.304 94.0897 210.547 93.873C210.79 93.6477 211.11 93.535 211.509 93.535C211.908 93.535 212.228 93.6477 212.471 93.873C212.714 94.0897 212.835 94.367 212.835 94.705C212.835 95.0343 212.714 95.3117 212.471 95.537C212.228 95.7537 211.908 95.862 211.509 95.862C211.11 95.862 210.79 95.7537 210.547 95.537C210.304 95.3117 210.183 95.0343 210.183 94.705ZM212.614 96.746V104H210.391V96.746H212.614ZM217.711 95.758C217.347 95.758 217.083 95.836 216.918 95.992C216.753 96.148 216.662 96.3993 216.645 96.746H217.958V98.618H216.645V104H214.422V98.618H213.551V96.746H214.422V96.668C214.422 95.7667 214.682 95.0733 215.202 94.588C215.731 94.094 216.493 93.847 217.49 93.847C217.698 93.847 217.854 93.8513 217.958 93.86V95.771L217.711 95.758ZM218.727 94.705C218.727 94.367 218.848 94.0897 219.091 93.873C219.334 93.6477 219.654 93.535 220.053 93.535C220.452 93.535 220.772 93.6477 221.015 93.873C221.258 94.0897 221.379 94.367 221.379 94.705C221.379 95.0343 221.258 95.3117 221.015 95.537C220.772 95.7537 220.452 95.862 220.053 95.862C219.654 95.862 219.334 95.7537 219.091 95.537C218.848 95.3117 218.727 95.0343 218.727 94.705ZM221.158 96.746V104H218.935V96.746H221.158ZM225.969 96.655C226.905 96.655 227.689 96.915 228.322 97.435C228.954 97.9463 229.353 98.6527 229.518 99.554H227.165C227.095 99.242 226.952 98.9993 226.736 98.826C226.519 98.6527 226.246 98.566 225.917 98.566C225.527 98.566 225.206 98.722 224.955 99.034C224.703 99.3373 224.578 99.7837 224.578 100.373C224.578 100.962 224.703 101.413 224.955 101.725C225.206 102.028 225.527 102.18 225.917 102.18C226.246 102.18 226.519 102.093 226.736 101.92C226.952 101.747 227.095 101.504 227.165 101.192H229.518C229.353 102.093 228.954 102.804 228.322 103.324C227.689 103.835 226.905 104.091 225.969 104.091C225.258 104.091 224.625 103.944 224.071 103.649C223.525 103.346 223.096 102.912 222.784 102.349C222.472 101.786 222.316 101.127 222.316 100.373C222.316 99.6103 222.467 98.9517 222.771 98.397C223.083 97.8337 223.516 97.4047 224.071 97.11C224.625 96.8067 225.258 96.655 225.969 96.655ZM233.434 96.655C233.989 96.655 234.465 96.7807 234.864 97.032C235.263 97.2833 235.557 97.6257 235.748 98.059V96.746H237.958V104H235.748V102.687C235.557 103.12 235.263 103.463 234.864 103.714C234.465 103.965 233.989 104.091 233.434 104.091C232.836 104.091 232.299 103.944 231.822 103.649C231.354 103.346 230.981 102.912 230.704 102.349C230.435 101.786 230.301 101.127 230.301 100.373C230.301 99.6103 230.435 98.9517 230.704 98.397C230.981 97.8337 231.354 97.4047 231.822 97.11C232.299 96.8067 232.836 96.655 233.434 96.655ZM234.149 98.605C233.672 98.605 233.287 98.761 232.992 99.073C232.706 99.385 232.563 99.8183 232.563 100.373C232.563 100.928 232.706 101.361 232.992 101.673C233.287 101.985 233.672 102.141 234.149 102.141C234.617 102.141 234.998 101.981 235.293 101.66C235.596 101.339 235.748 100.91 235.748 100.373C235.748 99.827 235.596 99.398 235.293 99.086C234.998 98.7653 234.617 98.605 234.149 98.605ZM243.597 102.089V104H242.596C241.746 104 241.083 103.792 240.607 103.376C240.139 102.951 239.905 102.254 239.905 101.283V98.618H238.93V96.746H239.905V94.965H242.128V96.746H243.584V98.618H242.128V101.322C242.128 101.608 242.184 101.807 242.297 101.92C242.418 102.033 242.617 102.089 242.895 102.089H243.597ZM244.638 94.705C244.638 94.367 244.759 94.0897 245.002 93.873C245.245 93.6477 245.565 93.535 245.964 93.535C246.363 93.535 246.683 93.6477 246.926 93.873C247.169 94.0897 247.29 94.367 247.29 94.705C247.29 95.0343 247.169 95.3117 246.926 95.537C246.683 95.7537 246.363 95.862 245.964 95.862C245.565 95.862 245.245 95.7537 245.002 95.537C244.759 95.3117 244.638 95.0343 244.638 94.705ZM247.069 96.746V104H244.846V96.746H247.069ZM251.997 96.655C252.716 96.655 253.358 96.8067 253.921 97.11C254.493 97.4047 254.939 97.8337 255.26 98.397C255.589 98.9603 255.754 99.619 255.754 100.373C255.754 101.127 255.589 101.786 255.26 102.349C254.939 102.912 254.493 103.346 253.921 103.649C253.358 103.944 252.716 104.091 251.997 104.091C251.278 104.091 250.632 103.944 250.06 103.649C249.488 103.346 249.037 102.912 248.708 102.349C248.387 101.786 248.227 101.127 248.227 100.373C248.227 99.619 248.387 98.9603 248.708 98.397C249.037 97.8337 249.488 97.4047 250.06 97.11C250.632 96.8067 251.278 96.655 251.997 96.655ZM251.997 98.579C251.572 98.579 251.213 98.735 250.918 99.047C250.632 99.3503 250.489 99.7923 250.489 100.373C250.489 100.954 250.632 101.396 250.918 101.699C251.213 102.002 251.572 102.154 251.997 102.154C252.422 102.154 252.777 102.002 253.063 101.699C253.349 101.396 253.492 100.954 253.492 100.373C253.492 99.7923 253.349 99.3503 253.063 99.047C252.777 98.735 252.422 98.579 251.997 98.579ZM261.509 96.668C262.341 96.668 262.999 96.9453 263.485 97.5C263.979 98.0547 264.226 98.8173 264.226 99.788V104H262.003V100.048C262.003 99.5627 261.873 99.1857 261.613 98.917C261.361 98.6397 261.023 98.501 260.599 98.501C260.148 98.501 259.788 98.644 259.52 98.93C259.26 99.216 259.13 99.6233 259.13 100.152V104H256.907V96.746H259.13V98.072C259.338 97.6387 259.645 97.2963 260.053 97.045C260.469 96.7937 260.954 96.668 261.509 96.668Z" fill="black"/>
<path d="M130.39 114.94V120.06C130.39 120.693 130.213 121.187 129.86 121.54C129.507 121.893 129.017 122.07 128.39 122.07C127.71 122.07 127.177 121.873 126.79 121.48C126.403 121.087 126.21 120.53 126.21 119.81H127.34C127.34 120.197 127.42 120.497 127.58 120.71C127.747 120.923 128 121.03 128.34 121.03C128.653 121.03 128.883 120.94 129.03 120.76C129.177 120.58 129.25 120.347 129.25 120.06V114.94H130.39ZM134.239 116.42C134.773 116.42 135.253 116.533 135.679 116.76C136.106 116.987 136.439 117.313 136.679 117.74C136.919 118.167 137.039 118.667 137.039 119.24C137.039 119.82 136.919 120.323 136.679 120.75C136.439 121.177 136.106 121.503 135.679 121.73C135.253 121.957 134.773 122.07 134.239 122.07C133.706 122.07 133.226 121.957 132.799 121.73C132.379 121.503 132.046 121.177 131.799 120.75C131.559 120.317 131.439 119.813 131.439 119.24C131.439 118.667 131.559 118.167 131.799 117.74C132.046 117.313 132.379 116.987 132.799 116.76C133.226 116.533 133.706 116.42 134.239 116.42ZM134.239 117.41C133.946 117.41 133.676 117.477 133.429 117.61C133.183 117.743 132.983 117.95 132.829 118.23C132.683 118.503 132.609 118.84 132.609 119.24C132.609 119.647 132.683 119.987 132.829 120.26C132.983 120.533 133.183 120.737 133.429 120.87C133.676 121.003 133.946 121.07 134.239 121.07C134.533 121.07 134.803 121.003 135.049 120.87C135.296 120.737 135.493 120.533 135.639 120.26C135.793 119.987 135.869 119.647 135.869 119.24C135.869 118.84 135.793 118.503 135.639 118.23C135.493 117.95 135.296 117.743 135.049 117.61C134.803 117.477 134.533 117.41 134.239 117.41ZM139.275 117.57C139.462 117.21 139.729 116.927 140.075 116.72C140.422 116.507 140.822 116.4 141.275 116.4V117.64H140.935C140.435 117.64 140.032 117.763 139.725 118.01C139.425 118.25 139.275 118.65 139.275 119.21V122H138.135V116.49H139.275V117.57ZM144.339 116.42C144.839 116.42 145.266 116.543 145.619 116.79C145.973 117.037 146.219 117.363 146.359 117.77V114.6H147.509V122H146.359V120.72C146.219 121.127 145.973 121.453 145.619 121.7C145.266 121.947 144.839 122.07 144.339 122.07C143.859 122.07 143.429 121.957 143.049 121.73C142.676 121.503 142.383 121.177 142.169 120.75C141.956 120.323 141.849 119.82 141.849 119.24C141.849 118.667 141.956 118.167 142.169 117.74C142.383 117.313 142.676 116.987 143.049 116.76C143.429 116.533 143.859 116.42 144.339 116.42ZM144.689 117.42C144.183 117.42 143.776 117.583 143.469 117.91C143.169 118.23 143.019 118.673 143.019 119.24C143.019 119.807 143.169 120.253 143.469 120.58C143.776 120.9 144.183 121.06 144.689 121.06C145.009 121.06 145.296 120.987 145.549 120.84C145.803 120.687 146.003 120.473 146.149 120.2C146.296 119.927 146.369 119.607 146.369 119.24C146.369 118.88 146.296 118.563 146.149 118.29C146.003 118.01 145.803 117.797 145.549 117.65C145.296 117.497 145.009 117.42 144.689 117.42ZM151.088 116.42C151.588 116.42 152.014 116.543 152.368 116.79C152.721 117.037 152.971 117.363 153.118 117.77V116.49H154.258V122H153.118V120.72C152.971 121.127 152.721 121.453 152.368 121.7C152.014 121.947 151.588 122.07 151.088 122.07C150.608 122.07 150.178 121.957 149.798 121.73C149.424 121.503 149.131 121.177 148.918 120.75C148.704 120.323 148.598 119.82 148.598 119.24C148.598 118.667 148.704 118.167 148.918 117.74C149.131 117.313 149.424 116.987 149.798 116.76C150.178 116.533 150.608 116.42 151.088 116.42ZM151.438 117.42C150.931 117.42 150.524 117.583 150.218 117.91C149.918 118.23 149.768 118.673 149.768 119.24C149.768 119.807 149.918 120.253 150.218 120.58C150.524 120.9 150.931 121.06 151.438 121.06C151.758 121.06 152.044 120.987 152.298 120.84C152.551 120.687 152.751 120.473 152.898 120.2C153.044 119.927 153.118 119.607 153.118 119.24C153.118 118.88 153.044 118.563 152.898 118.29C152.751 118.01 152.551 117.797 152.298 117.65C152.044 117.497 151.758 117.42 151.438 117.42ZM158.706 116.4C159.346 116.4 159.859 116.607 160.246 117.02C160.632 117.433 160.826 118.023 160.826 118.79V122H159.686V118.91C159.686 118.417 159.559 118.037 159.306 117.77C159.052 117.497 158.706 117.36 158.266 117.36C157.812 117.36 157.449 117.507 157.176 117.8C156.902 118.087 156.766 118.51 156.766 119.07V122H155.626V116.49H156.766V117.7C156.912 117.287 157.159 116.967 157.506 116.74C157.852 116.513 158.252 116.4 158.706 116.4ZM165.643 121.11H168.083V122H164.503V114.94H165.643V121.11ZM174.095 118.98C174.095 119.167 174.082 119.33 174.055 119.47H169.815C169.835 120.037 169.992 120.457 170.285 120.73C170.578 121.003 170.942 121.14 171.375 121.14C171.755 121.14 172.075 121.043 172.335 120.85C172.602 120.657 172.765 120.4 172.825 120.08H174.045C173.972 120.467 173.818 120.81 173.585 121.11C173.352 121.41 173.048 121.647 172.675 121.82C172.302 121.987 171.885 122.07 171.425 122.07C170.892 122.07 170.418 121.957 170.005 121.73C169.598 121.503 169.278 121.177 169.045 120.75C168.812 120.323 168.695 119.82 168.695 119.24C168.695 118.667 168.812 118.167 169.045 117.74C169.278 117.313 169.598 116.987 170.005 116.76C170.418 116.533 170.892 116.42 171.425 116.42C171.965 116.42 172.435 116.533 172.835 116.76C173.242 116.98 173.552 117.287 173.765 117.68C173.985 118.067 174.095 118.5 174.095 118.98ZM172.945 118.95C172.958 118.59 172.895 118.29 172.755 118.05C172.622 117.803 172.435 117.623 172.195 117.51C171.962 117.39 171.705 117.33 171.425 117.33C170.978 117.33 170.605 117.467 170.305 117.74C170.005 118.013 169.842 118.417 169.815 118.95H172.945ZM177.456 120.82L179.016 116.49H180.236L178.136 122H176.756L174.656 116.49H175.876L177.456 120.82ZM180.915 114.89C180.915 114.697 180.981 114.537 181.115 114.41C181.248 114.283 181.425 114.22 181.645 114.22C181.865 114.22 182.041 114.283 182.175 114.41C182.315 114.537 182.385 114.697 182.385 114.89C182.385 115.083 182.315 115.24 182.175 115.36C182.041 115.48 181.865 115.54 181.645 115.54C181.425 115.54 181.248 115.48 181.115 115.36C180.981 115.24 180.915 115.083 180.915 114.89ZM182.215 116.49V122H181.075V116.49H182.215ZM185.404 116.42C186.051 116.42 186.568 116.587 186.954 116.92C187.348 117.247 187.588 117.687 187.674 118.24H186.594C186.548 117.94 186.418 117.7 186.204 117.52C185.998 117.333 185.721 117.24 185.374 117.24C185.088 117.24 184.864 117.31 184.704 117.45C184.551 117.583 184.474 117.767 184.474 118C184.474 118.173 184.531 118.313 184.644 118.42C184.758 118.527 184.898 118.61 185.064 118.67C185.238 118.73 185.481 118.797 185.794 118.87C186.208 118.963 186.541 119.06 186.794 119.16C187.054 119.26 187.274 119.42 187.454 119.64C187.641 119.853 187.734 120.147 187.734 120.52C187.734 120.98 187.558 121.353 187.204 121.64C186.858 121.927 186.388 122.07 185.794 122.07C185.108 122.07 184.551 121.91 184.124 121.59C183.704 121.27 183.451 120.823 183.364 120.25H184.474C184.508 120.55 184.641 120.793 184.874 120.98C185.108 121.167 185.414 121.26 185.794 121.26C186.068 121.26 186.281 121.19 186.434 121.05C186.594 120.903 186.674 120.72 186.674 120.5C186.674 120.307 186.614 120.153 186.494 120.04C186.374 119.927 186.224 119.84 186.044 119.78C185.864 119.713 185.618 119.647 185.304 119.58C184.904 119.487 184.578 119.393 184.324 119.3C184.078 119.207 183.864 119.057 183.684 118.85C183.511 118.637 183.424 118.35 183.424 117.99C183.424 117.523 183.598 117.147 183.944 116.86C184.298 116.567 184.784 116.42 185.404 116.42ZM193.431 116.42C193.931 116.42 194.358 116.543 194.711 116.79C195.065 117.037 195.315 117.363 195.461 117.77V116.49H196.601V122H195.461V120.72C195.315 121.127 195.065 121.453 194.711 121.7C194.358 121.947 193.931 122.07 193.431 122.07C192.951 122.07 192.521 121.957 192.141 121.73C191.768 121.503 191.475 121.177 191.261 120.75C191.048 120.323 190.941 119.82 190.941 119.24C190.941 118.667 191.048 118.167 191.261 117.74C191.475 117.313 191.768 116.987 192.141 116.76C192.521 116.533 192.951 116.42 193.431 116.42ZM193.781 117.42C193.275 117.42 192.868 117.583 192.561 117.91C192.261 118.23 192.111 118.673 192.111 119.24C192.111 119.807 192.261 120.253 192.561 120.58C192.868 120.9 193.275 121.06 193.781 121.06C194.101 121.06 194.388 120.987 194.641 120.84C194.895 120.687 195.095 120.473 195.241 120.2C195.388 119.927 195.461 119.607 195.461 119.24C195.461 118.88 195.388 118.563 195.241 118.29C195.095 118.01 194.895 117.797 194.641 117.65C194.388 117.497 194.101 117.42 193.781 117.42ZM202.763 116.42C203.476 116.42 204.066 116.61 204.533 116.99C205 117.363 205.29 117.873 205.403 118.52H204.193C204.126 118.173 203.963 117.903 203.703 117.71C203.45 117.51 203.13 117.41 202.743 117.41C202.303 117.41 201.936 117.567 201.643 117.88C201.35 118.187 201.203 118.64 201.203 119.24C201.203 119.84 201.35 120.297 201.643 120.61C201.936 120.923 202.303 121.08 202.743 121.08C203.13 121.08 203.45 120.98 203.703 120.78C203.963 120.58 204.126 120.307 204.193 119.96H205.403C205.29 120.607 205 121.12 204.533 121.5C204.066 121.88 203.476 122.07 202.763 122.07C202.23 122.07 201.756 121.957 201.343 121.73C200.936 121.503 200.616 121.177 200.383 120.75C200.15 120.323 200.033 119.82 200.033 119.24C200.033 118.667 200.15 118.167 200.383 117.74C200.616 117.313 200.936 116.987 201.343 116.76C201.756 116.533 202.23 116.42 202.763 116.42ZM209.024 116.42C209.558 116.42 210.038 116.533 210.464 116.76C210.891 116.987 211.224 117.313 211.464 117.74C211.704 118.167 211.824 118.667 211.824 119.24C211.824 119.82 211.704 120.323 211.464 120.75C211.224 121.177 210.891 121.503 210.464 121.73C210.038 121.957 209.558 122.07 209.024 122.07C208.491 122.07 208.011 121.957 207.584 121.73C207.164 121.503 206.831 121.177 206.584 120.75C206.344 120.317 206.224 119.813 206.224 119.24C206.224 118.667 206.344 118.167 206.584 117.74C206.831 117.313 207.164 116.987 207.584 116.76C208.011 116.533 208.491 116.42 209.024 116.42ZM209.024 117.41C208.731 117.41 208.461 117.477 208.214 117.61C207.968 117.743 207.768 117.95 207.614 118.23C207.468 118.503 207.394 118.84 207.394 119.24C207.394 119.647 207.468 119.987 207.614 120.26C207.768 120.533 207.968 120.737 208.214 120.87C208.461 121.003 208.731 121.07 209.024 121.07C209.318 121.07 209.588 121.003 209.834 120.87C210.081 120.737 210.278 120.533 210.424 120.26C210.578 119.987 210.654 119.647 210.654 119.24C210.654 118.84 210.578 118.503 210.424 118.23C210.278 117.95 210.081 117.743 209.834 117.61C209.588 117.477 209.318 117.41 209.024 117.41ZM216 116.4C216.64 116.4 217.154 116.607 217.54 117.02C217.927 117.433 218.12 118.023 218.12 118.79V122H216.98V118.91C216.98 118.417 216.854 118.037 216.6 117.77C216.347 117.497 216 117.36 215.56 117.36C215.107 117.36 214.744 117.507 214.47 117.8C214.197 118.087 214.06 118.51 214.06 119.07V122H212.92V116.49H214.06V117.7C214.207 117.287 214.454 116.967 214.8 116.74C215.147 116.513 215.547 116.4 216 116.4ZM221.264 116.42C221.91 116.42 222.427 116.587 222.814 116.92C223.207 117.247 223.447 117.687 223.534 118.24H222.454C222.407 117.94 222.277 117.7 222.064 117.52C221.857 117.333 221.58 117.24 221.234 117.24C220.947 117.24 220.724 117.31 220.564 117.45C220.41 117.583 220.334 117.767 220.334 118C220.334 118.173 220.39 118.313 220.504 118.42C220.617 118.527 220.757 118.61 220.924 118.67C221.097 118.73 221.34 118.797 221.654 118.87C222.067 118.963 222.4 119.06 222.654 119.16C222.914 119.26 223.134 119.42 223.314 119.64C223.5 119.853 223.594 120.147 223.594 120.52C223.594 120.98 223.417 121.353 223.064 121.64C222.717 121.927 222.247 122.07 221.654 122.07C220.967 122.07 220.41 121.91 219.984 121.59C219.564 121.27 219.31 120.823 219.224 120.25H220.334C220.367 120.55 220.5 120.793 220.734 120.98C220.967 121.167 221.274 121.26 221.654 121.26C221.927 121.26 222.14 121.19 222.294 121.05C222.454 120.903 222.534 120.72 222.534 120.5C222.534 120.307 222.474 120.153 222.354 120.04C222.234 119.927 222.084 119.84 221.904 119.78C221.724 119.713 221.477 119.647 221.164 119.58C220.764 119.487 220.437 119.393 220.184 119.3C219.937 119.207 219.724 119.057 219.544 118.85C219.37 118.637 219.284 118.35 219.284 117.99C219.284 117.523 219.457 117.147 219.804 116.86C220.157 116.567 220.644 116.42 221.264 116.42ZM229.817 116.49V122H228.667V120.8C228.527 121.207 228.284 121.523 227.937 121.75C227.59 121.97 227.187 122.08 226.727 122.08C226.087 122.08 225.574 121.873 225.187 121.46C224.8 121.047 224.607 120.457 224.607 119.69V116.49H225.747V119.57C225.747 120.07 225.874 120.457 226.127 120.73C226.38 120.997 226.727 121.13 227.167 121.13C227.62 121.13 227.984 120.983 228.257 120.69C228.53 120.397 228.667 119.97 228.667 119.41V116.49H229.817ZM232.322 114.6V122H231.182V114.6H232.322ZM236.472 121.01V122H235.772C235.185 122 234.738 121.86 234.432 121.58C234.132 121.293 233.982 120.82 233.982 120.16V117.46H233.192V116.49H233.982V115.12H235.132V116.49H236.462V117.46H235.132V120.18C235.132 120.493 235.188 120.71 235.302 120.83C235.422 120.95 235.628 121.01 235.922 121.01H236.472ZM242.66 118.98C242.66 119.167 242.646 119.33 242.62 119.47H238.38C238.4 120.037 238.556 120.457 238.85 120.73C239.143 121.003 239.506 121.14 239.94 121.14C240.32 121.14 240.64 121.043 240.9 120.85C241.166 120.657 241.33 120.4 241.39 120.08H242.61C242.536 120.467 242.383 120.81 242.15 121.11C241.916 121.41 241.613 121.647 241.24 121.82C240.866 121.987 240.45 122.07 239.99 122.07C239.456 122.07 238.983 121.957 238.57 121.73C238.163 121.503 237.843 121.177 237.61 120.75C237.376 120.323 237.26 119.82 237.26 119.24C237.26 118.667 237.376 118.167 237.61 117.74C237.843 117.313 238.163 116.987 238.57 116.76C238.983 116.533 239.456 116.42 239.99 116.42C240.53 116.42 241 116.533 241.4 116.76C241.806 116.98 242.116 117.287 242.33 117.68C242.55 118.067 242.66 118.5 242.66 118.98ZM241.51 118.95C241.523 118.59 241.46 118.29 241.32 118.05C241.186 117.803 241 117.623 240.76 117.51C240.526 117.39 240.27 117.33 239.99 117.33C239.543 117.33 239.17 117.467 238.87 117.74C238.57 118.013 238.406 118.417 238.38 118.95H241.51ZM241.55 114.93L239.34 116.06V115.26L241.55 114.04V114.93ZM248.364 120.82L249.924 116.49H251.144L249.044 122H247.664L245.564 116.49H246.784L248.364 120.82ZM254.503 116.42C255.036 116.42 255.516 116.533 255.943 116.76C256.37 116.987 256.703 117.313 256.943 117.74C257.183 118.167 257.303 118.667 257.303 119.24C257.303 119.82 257.183 120.323 256.943 120.75C256.703 121.177 256.37 121.503 255.943 121.73C255.516 121.957 255.036 122.07 254.503 122.07C253.97 122.07 253.49 121.957 253.063 121.73C252.643 121.503 252.31 121.177 252.063 120.75C251.823 120.317 251.703 119.813 251.703 119.24C251.703 118.667 251.823 118.167 252.063 117.74C252.31 117.313 252.643 116.987 253.063 116.76C253.49 116.533 253.97 116.42 254.503 116.42ZM254.503 117.41C254.21 117.41 253.94 117.477 253.693 117.61C253.446 117.743 253.246 117.95 253.093 118.23C252.946 118.503 252.873 118.84 252.873 119.24C252.873 119.647 252.946 119.987 253.093 120.26C253.246 120.533 253.446 120.737 253.693 120.87C253.94 121.003 254.21 121.07 254.503 121.07C254.796 121.07 255.066 121.003 255.313 120.87C255.56 120.737 255.756 120.533 255.903 120.26C256.056 119.987 256.133 119.647 256.133 119.24C256.133 118.84 256.056 118.503 255.903 118.23C255.756 117.95 255.56 117.743 255.313 117.61C255.066 117.477 254.796 117.41 254.503 117.41ZM261.169 121.01V122H260.469C259.882 122 259.436 121.86 259.129 121.58C258.829 121.293 258.679 120.82 258.679 120.16V117.46H257.889V116.49H258.679V115.12H259.829V116.49H261.159V117.46H259.829V120.18C259.829 120.493 259.886 120.71 259.999 120.83C260.119 120.95 260.326 121.01 260.619 121.01H261.169ZM263.377 117.57C263.564 117.21 263.83 116.927 264.177 116.72C264.524 116.507 264.924 116.4 265.377 116.4V117.64H265.037C264.537 117.64 264.134 117.763 263.827 118.01C263.527 118.25 263.377 118.65 263.377 119.21V122H262.237V116.49H263.377V117.57ZM271.351 118.98C271.351 119.167 271.338 119.33 271.311 119.47H267.071C267.091 120.037 267.248 120.457 267.541 120.73C267.834 121.003 268.198 121.14 268.631 121.14C269.011 121.14 269.331 121.043 269.591 120.85C269.858 120.657 270.021 120.4 270.081 120.08H271.301C271.228 120.467 271.074 120.81 270.841 121.11C270.608 121.41 270.304 121.647 269.931 121.82C269.558 121.987 269.141 122.07 268.681 122.07C268.148 122.07 267.674 121.957 267.261 121.73C266.854 121.503 266.534 121.177 266.301 120.75C266.068 120.323 265.951 119.82 265.951 119.24C265.951 118.667 266.068 118.167 266.301 117.74C266.534 117.313 266.854 116.987 267.261 116.76C267.674 116.533 268.148 116.42 268.681 116.42C269.221 116.42 269.691 116.533 270.091 116.76C270.498 116.98 270.808 117.287 271.021 117.68C271.241 118.067 271.351 118.5 271.351 118.98ZM270.201 118.95C270.214 118.59 270.151 118.29 270.011 118.05C269.878 117.803 269.691 117.623 269.451 117.51C269.218 117.39 268.961 117.33 268.681 117.33C268.234 117.33 267.861 117.467 267.561 117.74C267.261 118.013 267.098 118.417 267.071 118.95H270.201ZM277.955 116.42C278.435 116.42 278.862 116.533 279.235 116.76C279.615 116.987 279.912 117.313 280.125 117.74C280.339 118.167 280.445 118.667 280.445 119.24C280.445 119.82 280.339 120.323 280.125 120.75C279.912 121.177 279.615 121.503 279.235 121.73C278.862 121.957 278.435 122.07 277.955 122.07C277.455 122.07 277.029 121.947 276.675 121.7C276.322 121.453 276.075 121.127 275.935 120.72V124.62H274.795V116.49H275.935V117.77C276.075 117.363 276.322 117.037 276.675 116.79C277.029 116.543 277.455 116.42 277.955 116.42ZM277.605 117.42C277.285 117.42 276.999 117.497 276.745 117.65C276.492 117.797 276.292 118.01 276.145 118.29C275.999 118.563 275.925 118.88 275.925 119.24C275.925 119.607 275.999 119.927 276.145 120.2C276.292 120.473 276.492 120.687 276.745 120.84C276.999 120.987 277.285 121.06 277.605 121.06C278.112 121.06 278.519 120.9 278.825 120.58C279.132 120.253 279.285 119.807 279.285 119.24C279.285 118.68 279.132 118.237 278.825 117.91C278.519 117.583 278.112 117.42 277.605 117.42ZM282.684 117.57C282.87 117.21 283.137 116.927 283.484 116.72C283.83 116.507 284.23 116.4 284.684 116.4V117.64H284.344C283.844 117.64 283.44 117.763 283.134 118.01C282.834 118.25 282.684 118.65 282.684 119.21V122H281.544V116.49H282.684V117.57ZM288.058 116.42C288.591 116.42 289.071 116.533 289.498 116.76C289.924 116.987 290.258 117.313 290.498 117.74C290.738 118.167 290.858 118.667 290.858 119.24C290.858 119.82 290.738 120.323 290.498 120.75C290.258 121.177 289.924 121.503 289.498 121.73C289.071 121.957 288.591 122.07 288.058 122.07C287.524 122.07 287.044 121.957 286.618 121.73C286.198 121.503 285.864 121.177 285.618 120.75C285.378 120.317 285.258 119.813 285.258 119.24C285.258 118.667 285.378 118.167 285.618 117.74C285.864 117.313 286.198 116.987 286.618 116.76C287.044 116.533 287.524 116.42 288.058 116.42ZM288.058 117.41C287.764 117.41 287.494 117.477 287.248 117.61C287.001 117.743 286.801 117.95 286.648 118.23C286.501 118.503 286.428 118.84 286.428 119.24C286.428 119.647 286.501 119.987 286.648 120.26C286.801 120.533 287.001 120.737 287.248 120.87C287.494 121.003 287.764 121.07 288.058 121.07C288.351 121.07 288.621 121.003 288.868 120.87C289.114 120.737 289.311 120.533 289.458 120.26C289.611 119.987 289.688 119.647 289.688 119.24C289.688 118.84 289.611 118.503 289.458 118.23C289.311 117.95 289.114 117.743 288.868 117.61C288.621 117.477 288.351 117.41 288.058 117.41ZM294.524 115.35C294.077 115.33 293.764 115.403 293.584 115.57C293.404 115.73 293.314 116.007 293.314 116.4V116.49H294.524V117.47H293.314V122H292.164V117.47H291.414V116.49H292.164V116.31C292.164 115.637 292.36 115.133 292.754 114.8C293.147 114.46 293.737 114.31 294.524 114.35V115.35ZM295.28 114.89C295.28 114.697 295.347 114.537 295.48 114.41C295.613 114.283 295.79 114.22 296.01 114.22C296.23 114.22 296.407 114.283 296.54 114.41C296.68 114.537 296.75 114.697 296.75 114.89C296.75 115.083 296.68 115.24 296.54 115.36C296.407 115.48 296.23 115.54 296.01 115.54C295.79 115.54 295.613 115.48 295.48 115.36C295.347 115.24 295.28 115.083 295.28 114.89ZM296.58 116.49V122H295.44V116.49H296.58ZM299.1 114.6V122H297.96V114.6H299.1Z" fill="black"/>
<g filter="url(#filter1_d)">
<circle cx="354" cy="80" r="9" fill="white"/>
</g>
<circle cx="354" cy="80" r="7" fill="black"/>
<path d="M116.072 294.439C116.072 291.137 111.288 292.411 111.288 290.37C111.288 289.499 111.951 289.083 112.809 289.109C113.745 289.135 114.278 289.694 114.33 290.305H115.968C115.838 288.758 114.616 287.848 112.887 287.848C111.041 287.848 109.78 288.836 109.78 290.422C109.78 293.75 114.577 292.333 114.577 294.517C114.577 295.284 113.992 295.843 112.952 295.843C111.925 295.843 111.405 295.245 111.34 294.504H109.754C109.754 296.103 111.145 297.091 112.952 297.091C114.967 297.091 116.072 295.791 116.072 294.439ZM124.646 293.412C124.646 291.163 123.034 289.72 120.993 289.72C118.952 289.72 117.34 291.163 117.34 293.412C117.34 295.661 118.887 297.117 120.928 297.117C122.982 297.117 124.646 295.661 124.646 293.412ZM118.848 293.412C118.848 291.787 119.849 291.007 120.967 291.007C122.072 291.007 123.125 291.787 123.125 293.412C123.125 295.037 122.033 295.83 120.928 295.83C119.81 295.83 118.848 295.037 118.848 293.412ZM128.932 295.297L126.917 289.837H125.266L128.087 296.883L126.631 300.367H128.165L132.559 289.837H131.025L128.932 295.297ZM136.693 290.968C137.798 290.968 138.669 291.67 138.695 292.775H134.73C134.886 291.644 135.692 290.968 136.693 290.968ZM140.047 294.868H138.448C138.175 295.427 137.668 295.869 136.758 295.869C135.666 295.869 134.821 295.154 134.717 293.971H140.19C140.229 293.724 140.242 293.49 140.242 293.243C140.242 291.137 138.799 289.72 136.758 289.72C134.639 289.72 133.183 291.163 133.183 293.412C133.183 295.661 134.704 297.117 136.758 297.117C138.513 297.117 139.644 296.116 140.047 294.868ZM146.264 289.837H141.298V291.046H144.561L141.298 295.791V297H146.264V295.791H143.014L146.264 291.046V289.837ZM150.703 293.386C150.703 295.596 152.198 297.117 154.057 297.117C155.253 297.117 156.111 296.545 156.566 295.934V297H158.061V289.837H156.566V290.877C156.124 290.292 155.292 289.72 154.083 289.72C152.198 289.72 150.703 291.176 150.703 293.386ZM156.566 293.412C156.566 294.959 155.513 295.83 154.395 295.83C153.29 295.83 152.224 294.933 152.224 293.386C152.224 291.839 153.29 291.007 154.395 291.007C155.513 291.007 156.566 291.878 156.566 293.412ZM159.162 289.837L161.879 297H163.647L166.377 289.837H164.804L162.776 295.674L160.748 289.837H159.162ZM170.513 290.968C171.618 290.968 172.489 291.67 172.515 292.775H168.55C168.706 291.644 169.512 290.968 170.513 290.968ZM173.867 294.868H172.268C171.995 295.427 171.488 295.869 170.578 295.869C169.486 295.869 168.641 295.154 168.537 293.971H174.01C174.049 293.724 174.062 293.49 174.062 293.243C174.062 291.137 172.619 289.72 170.578 289.72C168.459 289.72 167.003 291.163 167.003 293.412C167.003 295.661 168.524 297.117 170.578 297.117C172.333 297.117 173.464 296.116 173.867 294.868ZM177.003 293.23C177.003 291.709 177.679 291.254 178.771 291.254H179.148V289.72C178.134 289.72 177.419 290.162 177.003 290.877V289.837H175.521V297H177.003V293.23ZM180.744 295.011C180.744 296.467 181.537 297 182.811 297H183.981V295.765H183.071C182.447 295.765 182.239 295.544 182.239 295.011V291.046H183.981V289.837H182.239V288.056H180.744V289.837H179.899V291.046H180.744V295.011ZM185.347 297H186.829V289.837H185.347V297ZM186.101 288.888C186.621 288.888 187.037 288.472 187.037 287.939C187.037 287.406 186.621 286.99 186.101 286.99C185.568 286.99 185.152 287.406 185.152 287.939C185.152 288.472 185.568 288.888 186.101 288.888ZM191.658 293.386C191.658 295.596 193.153 297.117 195.038 297.117C196.208 297.117 197.066 296.571 197.521 295.921V297H199.016V287.38H197.521V290.838C196.975 290.162 195.987 289.72 195.051 289.72C193.153 289.72 191.658 291.176 191.658 293.386ZM197.521 293.412C197.521 294.959 196.468 295.83 195.35 295.83C194.245 295.83 193.179 294.933 193.179 293.386C193.179 291.839 194.245 291.007 195.35 291.007C196.468 291.007 197.521 291.878 197.521 293.412ZM203.978 290.968C205.083 290.968 205.954 291.67 205.98 292.775H202.015C202.171 291.644 202.977 290.968 203.978 290.968ZM207.332 294.868H205.733C205.46 295.427 204.953 295.869 204.043 295.869C202.951 295.869 202.106 295.154 202.002 293.971H207.475C207.514 293.724 207.527 293.49 207.527 293.243C207.527 291.137 206.084 289.72 204.043 289.72C201.924 289.72 200.468 291.163 200.468 293.412C200.468 295.661 201.989 297.117 204.043 297.117C205.798 297.117 206.929 296.116 207.332 294.868ZM214.329 294.998C214.251 292.411 210.208 293.217 210.208 291.774C210.208 291.293 210.624 290.968 211.417 290.968C212.223 290.968 212.704 291.397 212.756 292.021H214.238C214.16 290.591 213.094 289.72 211.469 289.72C209.779 289.72 208.713 290.643 208.713 291.787C208.713 294.413 212.873 293.607 212.873 295.011C212.873 295.505 212.418 295.869 211.56 295.869C210.741 295.869 210.182 295.388 210.13 294.803H208.596C208.661 296.103 209.87 297.117 211.586 297.117C213.276 297.117 214.329 296.207 214.329 294.998ZM218.462 289.837L221.179 297H222.947L225.677 289.837H224.104L222.076 295.674L220.048 289.837H218.462ZM226.797 297H228.279V289.837H226.797V297ZM227.551 288.888C228.071 288.888 228.487 288.472 228.487 287.939C228.487 287.406 228.071 286.99 227.551 286.99C227.018 286.99 226.602 287.406 226.602 287.939C226.602 288.472 227.018 288.888 227.551 288.888ZM235.568 294.998C235.49 292.411 231.447 293.217 231.447 291.774C231.447 291.293 231.863 290.968 232.656 290.968C233.462 290.968 233.943 291.397 233.995 292.021H235.477C235.399 290.591 234.333 289.72 232.708 289.72C231.018 289.72 229.952 290.643 229.952 291.787C229.952 294.413 234.112 293.607 234.112 295.011C234.112 295.505 233.657 295.869 232.799 295.869C231.98 295.869 231.421 295.388 231.369 294.803H229.835C229.9 296.103 231.109 297.117 232.825 297.117C234.515 297.117 235.568 296.207 235.568 294.998ZM237.169 297H238.651V289.837H237.169V297ZM237.923 288.888C238.443 288.888 238.859 288.472 238.859 287.939C238.859 287.406 238.443 286.99 237.923 286.99C237.39 286.99 236.974 287.406 236.974 287.939C236.974 288.472 237.39 288.888 237.923 288.888ZM240.831 295.011C240.831 296.467 241.624 297 242.898 297H244.068V295.765H243.158C242.534 295.765 242.326 295.544 242.326 295.011V291.046H244.068V289.837H242.326V288.056H240.831V289.837H239.986V291.046H240.831V295.011ZM248.45 290.968C249.555 290.968 250.426 291.67 250.452 292.775H246.487C246.643 291.644 247.449 290.968 248.45 290.968ZM251.804 294.868H250.205C249.932 295.427 249.425 295.869 248.515 295.869C247.423 295.869 246.578 295.154 246.474 293.971H251.947C251.986 293.724 251.999 293.49 251.999 293.243C251.999 291.137 250.556 289.72 248.515 289.72C246.396 289.72 244.94 291.163 244.94 293.412C244.94 295.661 246.461 297.117 248.515 297.117C250.27 297.117 251.401 296.116 251.804 294.868ZM259.944 289.837H258.462V293.828C258.462 295.141 257.747 295.817 256.655 295.817C255.576 295.817 254.861 295.141 254.861 293.828V289.837H253.392V294.049C253.392 296.051 254.666 297.104 256.343 297.104C257.188 297.104 257.994 296.753 258.462 296.142V297H259.944V289.837ZM263.382 293.23C263.382 291.709 264.058 291.254 265.15 291.254H265.527V289.72C264.513 289.72 263.798 290.162 263.382 290.877V289.837H261.9V297H263.382V293.23ZM272.232 294.998C272.154 292.411 268.111 293.217 268.111 291.774C268.111 291.293 268.527 290.968 269.32 290.968C270.126 290.968 270.607 291.397 270.659 292.021H272.141C272.063 290.591 270.997 289.72 269.372 289.72C267.682 289.72 266.616 290.643 266.616 291.787C266.616 294.413 270.776 293.607 270.776 295.011C270.776 295.505 270.321 295.869 269.463 295.869C268.644 295.869 268.085 295.388 268.033 294.803H266.499C266.564 296.103 267.773 297.117 269.489 297.117C271.179 297.117 272.232 296.207 272.232 294.998Z" fill="black"/>
<circle cx="84" cy="292" r="12" fill="black"/>
<path d="M87.4937 288.758C87.8383 288.414 88.397 288.414 88.7416 288.758C89.0862 289.103 89.0862 289.662 88.7416 290.006L83.4475 295.3C83.1029 295.645 82.5442 295.645 82.1996 295.3L79.2584 292.359C78.9139 292.015 78.9139 291.456 79.2584 291.111C79.603 290.767 80.1617 290.767 80.5063 291.111L82.8235 293.429L87.4937 288.758Z" fill="white"/>
<path d="M114.096 354.848C111.548 354.848 109.481 356.759 109.481 359.463C109.481 362.18 111.548 364.078 114.096 364.078C116.527 364.078 118.295 362.297 118.568 360.204V359.047H113.589V360.23H116.982C116.761 361.751 115.734 362.739 114.096 362.739C112.302 362.739 111.002 361.452 111.002 359.463C111.002 357.474 112.302 356.2 114.096 356.2C115.175 356.2 116.033 356.655 116.514 357.565H118.295C117.606 355.797 115.981 354.848 114.096 354.848ZM119.536 360.386C119.536 362.596 121.031 364.117 122.89 364.117C124.086 364.117 124.944 363.545 125.399 362.934V364H126.894V356.837H125.399V357.877C124.957 357.292 124.125 356.72 122.916 356.72C121.031 356.72 119.536 358.176 119.536 360.386ZM125.399 360.412C125.399 361.959 124.346 362.83 123.228 362.83C122.123 362.83 121.057 361.933 121.057 360.386C121.057 358.839 122.123 358.007 123.228 358.007C124.346 358.007 125.399 358.878 125.399 360.412ZM130.322 360.23C130.322 358.709 130.998 358.254 132.09 358.254H132.467V356.72C131.453 356.72 130.738 357.162 130.322 357.877V356.837H128.84V364H130.322V360.23ZM133.335 360.386C133.335 362.596 134.83 364.117 136.715 364.117C137.885 364.117 138.743 363.571 139.198 362.921V364H140.693V354.38H139.198V357.838C138.652 357.162 137.664 356.72 136.728 356.72C134.83 356.72 133.335 358.176 133.335 360.386ZM139.198 360.412C139.198 361.959 138.145 362.83 137.027 362.83C135.922 362.83 134.856 361.933 134.856 360.386C134.856 358.839 135.922 358.007 137.027 358.007C138.145 358.007 139.198 358.878 139.198 360.412ZM145.656 357.968C146.761 357.968 147.632 358.67 147.658 359.775H143.693C143.849 358.644 144.655 357.968 145.656 357.968ZM149.01 361.868H147.411C147.138 362.427 146.631 362.869 145.721 362.869C144.629 362.869 143.784 362.154 143.68 360.971H149.153C149.192 360.724 149.205 360.49 149.205 360.243C149.205 358.137 147.762 356.72 145.721 356.72C143.602 356.72 142.146 358.163 142.146 360.412C142.146 362.661 143.667 364.117 145.721 364.117C147.476 364.117 148.607 363.116 149.01 361.868ZM155.226 356.837H150.26V358.046H153.523L150.26 362.791V364H155.226V362.791H151.976L155.226 358.046V356.837ZM159.666 360.412C159.666 362.661 161.122 364.117 163.176 364.117C164.931 364.117 166.075 363.142 166.478 361.738H164.879C164.606 362.479 164.06 362.869 163.176 362.869C161.98 362.869 161.187 361.985 161.187 360.412C161.187 358.852 161.98 357.968 163.176 357.968C164.06 357.968 164.632 358.41 164.879 359.099H166.478C166.075 357.591 164.931 356.72 163.176 356.72C161.122 356.72 159.666 358.176 159.666 360.412ZM174.779 360.412C174.779 358.163 173.167 356.72 171.126 356.72C169.085 356.72 167.473 358.163 167.473 360.412C167.473 362.661 169.02 364.117 171.061 364.117C173.115 364.117 174.779 362.661 174.779 360.412ZM168.981 360.412C168.981 358.787 169.982 358.007 171.1 358.007C172.205 358.007 173.258 358.787 173.258 360.412C173.258 362.037 172.166 362.83 171.061 362.83C169.943 362.83 168.981 362.037 168.981 360.412ZM181.328 364H182.797V359.775C182.797 357.773 181.536 356.72 179.859 356.72C179.001 356.72 178.208 357.071 177.727 357.656V356.837H176.245V364H177.727V359.996C177.727 358.683 178.442 358.007 179.534 358.007C180.613 358.007 181.328 358.683 181.328 359.996V364ZM184.921 362.011C184.921 363.467 185.714 364 186.988 364H188.158V362.765H187.248C186.624 362.765 186.416 362.544 186.416 362.011V358.046H188.158V356.837H186.416V355.056H184.921V356.837H184.076V358.046H184.921V362.011ZM189.03 360.386C189.03 362.596 190.525 364.117 192.384 364.117C193.58 364.117 194.438 363.545 194.893 362.934V364H196.388V356.837H194.893V357.877C194.451 357.292 193.619 356.72 192.41 356.72C190.525 356.72 189.03 358.176 189.03 360.386ZM194.893 360.412C194.893 361.959 193.84 362.83 192.722 362.83C191.617 362.83 190.551 361.933 190.551 360.386C190.551 358.839 191.617 358.007 192.722 358.007C193.84 358.007 194.893 358.878 194.893 360.412ZM197.84 360.412C197.84 362.661 199.296 364.117 201.35 364.117C203.105 364.117 204.249 363.142 204.652 361.738H203.053C202.78 362.479 202.234 362.869 201.35 362.869C200.154 362.869 199.361 361.985 199.361 360.412C199.361 358.852 200.154 357.968 201.35 357.968C202.234 357.968 202.806 358.41 203.053 359.099H204.652C204.249 357.591 203.105 356.72 201.35 356.72C199.296 356.72 197.84 358.176 197.84 360.412ZM206.363 362.011C206.363 363.467 207.156 364 208.43 364H209.6V362.765H208.69C208.066 362.765 207.858 362.544 207.858 362.011V358.046H209.6V356.837H207.858V355.056H206.363V356.837H205.518V358.046H206.363V362.011ZM214.525 364H216.02V358.046H217.346V356.837H216.02V356.33C216.02 355.511 216.332 355.199 217.242 355.199V353.964C215.37 353.964 214.525 354.679 214.525 356.33V356.837H213.68V358.046H214.525V364ZM218.166 360.386C218.166 362.596 219.661 364.117 221.52 364.117C222.716 364.117 223.574 363.545 224.029 362.934V364H225.524V356.837H224.029V357.877C223.587 357.292 222.755 356.72 221.546 356.72C219.661 356.72 218.166 358.176 218.166 360.386ZM224.029 360.412C224.029 361.959 222.976 362.83 221.858 362.83C220.753 362.83 219.687 361.933 219.687 360.386C219.687 358.839 220.753 358.007 221.858 358.007C222.976 358.007 224.029 358.878 224.029 360.412ZM226.976 360.412C226.976 362.661 228.432 364.117 230.486 364.117C232.241 364.117 233.385 363.142 233.788 361.738H232.189C231.916 362.479 231.37 362.869 230.486 362.869C229.29 362.869 228.497 361.985 228.497 360.412C228.497 358.852 229.29 357.968 230.486 357.968C231.37 357.968 231.942 358.41 232.189 359.099H233.788C233.385 357.591 232.241 356.72 230.486 356.72C228.432 356.72 226.976 358.176 226.976 360.412ZM235.265 364H236.747V356.837H235.265V364ZM236.019 355.888C236.539 355.888 236.955 355.472 236.955 354.939C236.955 354.406 236.539 353.99 236.019 353.99C235.486 353.99 235.07 354.406 235.07 354.939C235.07 355.472 235.486 355.888 236.019 355.888ZM238.693 364H240.175V354.38H238.693V364ZM245.137 357.968C246.242 357.968 247.113 358.67 247.139 359.775H243.174C243.33 358.644 244.136 357.968 245.137 357.968ZM248.491 361.868H246.892C246.619 362.427 246.112 362.869 245.202 362.869C244.11 362.869 243.265 362.154 243.161 360.971H248.634C248.673 360.724 248.686 360.49 248.686 360.243C248.686 358.137 247.243 356.72 245.202 356.72C243.083 356.72 241.627 358.163 241.627 360.412C241.627 362.661 243.148 364.117 245.202 364.117C246.957 364.117 248.088 363.116 248.491 361.868ZM260.297 364H261.766V359.775C261.766 357.773 260.492 356.72 258.815 356.72C257.775 356.72 256.761 357.266 256.319 358.137C255.825 357.201 254.876 356.72 253.745 356.72C252.887 356.72 252.107 357.071 251.626 357.656V356.837H250.144V364H251.626V359.996C251.626 358.683 252.341 358.007 253.433 358.007C254.512 358.007 255.227 358.683 255.227 359.996V364H256.696V359.996C256.696 358.683 257.411 358.007 258.503 358.007C259.582 358.007 260.297 358.683 260.297 359.996V364ZM266.668 357.968C267.773 357.968 268.644 358.67 268.67 359.775H264.705C264.861 358.644 265.667 357.968 266.668 357.968ZM270.022 361.868H268.423C268.15 362.427 267.643 362.869 266.733 362.869C265.641 362.869 264.796 362.154 264.692 360.971H270.165C270.204 360.724 270.217 360.49 270.217 360.243C270.217 358.137 268.774 356.72 266.733 356.72C264.614 356.72 263.158 358.163 263.158 360.412C263.158 362.661 264.679 364.117 266.733 364.117C268.488 364.117 269.619 363.116 270.022 361.868ZM276.758 364H278.227V359.775C278.227 357.773 276.966 356.72 275.289 356.72C274.431 356.72 273.638 357.071 273.157 357.656V356.837H271.675V364H273.157V359.996C273.157 358.683 273.872 358.007 274.964 358.007C276.043 358.007 276.758 358.683 276.758 359.996V364ZM280.352 362.011C280.352 363.467 281.145 364 282.419 364H283.589V362.765H282.679C282.055 362.765 281.847 362.544 281.847 362.011V358.046H283.589V356.837H281.847V355.056H280.352V356.837H279.507V358.046H280.352V362.011Z" fill="black"/>
<circle cx="84" cy="359" r="12" fill="black"/>
<path d="M87.4937 355.758C87.8383 355.414 88.397 355.414 88.7416 355.758C89.0862 356.103 89.0862 356.662 88.7416 357.006L83.4475 362.3C83.1029 362.645 82.5442 362.645 82.1996 362.3L79.2584 359.359C78.9139 359.015 78.9139 358.456 79.2584 358.111C79.603 357.767 80.1617 357.767 80.5063 358.111L82.8235 360.429L87.4937 355.758Z" fill="white"/>
<path d="M117.32 431H115.838L111.379 424.227V431H109.897V421.835H111.379L115.838 428.634V421.835H117.32V431ZM125.77 427.074C125.77 427.317 125.752 427.529 125.718 427.711H120.206C120.232 428.448 120.435 428.994 120.817 429.349C121.198 429.704 121.67 429.882 122.234 429.882C122.728 429.882 123.144 429.756 123.482 429.505C123.828 429.254 124.041 428.92 124.119 428.504H125.705C125.609 429.007 125.41 429.453 125.107 429.843C124.803 430.233 124.409 430.541 123.924 430.766C123.438 430.983 122.897 431.091 122.299 431.091C121.605 431.091 120.99 430.944 120.453 430.649C119.924 430.354 119.508 429.93 119.205 429.375C118.901 428.82 118.75 428.166 118.75 427.412C118.75 426.667 118.901 426.017 119.205 425.462C119.508 424.907 119.924 424.483 120.453 424.188C120.99 423.893 121.605 423.746 122.299 423.746C123.001 423.746 123.612 423.893 124.132 424.188C124.66 424.474 125.063 424.873 125.341 425.384C125.627 425.887 125.77 426.45 125.77 427.074ZM124.275 427.035C124.292 426.567 124.21 426.177 124.028 425.865C123.854 425.544 123.612 425.31 123.3 425.163C122.996 425.007 122.663 424.929 122.299 424.929C121.718 424.929 121.233 425.107 120.843 425.462C120.453 425.817 120.24 426.342 120.206 427.035H124.275ZM130.802 429.713V431H129.892C129.129 431 128.548 430.818 128.15 430.454C127.76 430.081 127.565 429.466 127.565 428.608V425.098H126.538V423.837H127.565V422.056H129.06V423.837H130.789V425.098H129.06V428.634C129.06 429.041 129.133 429.323 129.281 429.479C129.437 429.635 129.705 429.713 130.087 429.713H130.802ZM142.226 423.837L140.237 431H138.599L136.831 425.462L135.037 431H133.412L131.423 423.837H132.918L134.283 429.635L136.077 423.837H137.637L139.457 429.635L140.822 423.837H142.226ZM146.511 423.746C147.204 423.746 147.828 423.893 148.383 424.188C148.938 424.483 149.371 424.907 149.683 425.462C149.995 426.017 150.151 426.667 150.151 427.412C150.151 428.166 149.995 428.82 149.683 429.375C149.371 429.93 148.938 430.354 148.383 430.649C147.828 430.944 147.204 431.091 146.511 431.091C145.818 431.091 145.194 430.944 144.639 430.649C144.093 430.354 143.66 429.93 143.339 429.375C143.027 428.812 142.871 428.157 142.871 427.412C142.871 426.667 143.027 426.017 143.339 425.462C143.66 424.907 144.093 424.483 144.639 424.188C145.194 423.893 145.818 423.746 146.511 423.746ZM146.511 425.033C146.13 425.033 145.779 425.12 145.458 425.293C145.137 425.466 144.877 425.735 144.678 426.099C144.487 426.454 144.392 426.892 144.392 427.412C144.392 427.941 144.487 428.383 144.678 428.738C144.877 429.093 145.137 429.358 145.458 429.531C145.779 429.704 146.13 429.791 146.511 429.791C146.892 429.791 147.243 429.704 147.564 429.531C147.885 429.358 148.14 429.093 148.331 428.738C148.53 428.383 148.63 427.941 148.63 427.412C148.63 426.892 148.53 426.454 148.331 426.099C148.14 425.735 147.885 425.466 147.564 425.293C147.243 425.12 146.892 425.033 146.511 425.033ZM153.058 425.241C153.3 424.773 153.647 424.405 154.098 424.136C154.548 423.859 155.068 423.72 155.658 423.72V425.332H155.216C154.566 425.332 154.041 425.492 153.643 425.813C153.253 426.125 153.058 426.645 153.058 427.373V431H151.576V423.837H153.058V425.241ZM160.824 431L158.25 427.815V431H156.768V421.38H158.25V426.892L160.798 423.837H162.579L159.459 427.399L162.657 431H160.824ZM170.28 427.074C170.28 427.317 170.262 427.529 170.228 427.711H164.716C164.742 428.448 164.945 428.994 165.327 429.349C165.708 429.704 166.18 429.882 166.744 429.882C167.238 429.882 167.654 429.756 167.992 429.505C168.338 429.254 168.551 428.92 168.629 428.504H170.215C170.119 429.007 169.92 429.453 169.617 429.843C169.313 430.233 168.919 430.541 168.434 430.766C167.948 430.983 167.407 431.091 166.809 431.091C166.115 431.091 165.5 430.944 164.963 430.649C164.434 430.354 164.018 429.93 163.715 429.375C163.411 428.82 163.26 428.166 163.26 427.412C163.26 426.667 163.411 426.017 163.715 425.462C164.018 424.907 164.434 424.483 164.963 424.188C165.5 423.893 166.115 423.746 166.809 423.746C167.511 423.746 168.122 423.893 168.642 424.188C169.17 424.474 169.573 424.873 169.851 425.384C170.137 425.887 170.28 426.45 170.28 427.074ZM168.785 427.035C168.802 426.567 168.72 426.177 168.538 425.865C168.364 425.544 168.122 425.31 167.81 425.163C167.506 425.007 167.173 424.929 166.809 424.929C166.228 424.929 165.743 425.107 165.353 425.462C164.963 425.817 164.75 426.342 164.716 427.035H168.785ZM172.776 429.752H176.455V431H171.138V429.817L174.622 425.085H171.229V423.837H176.325V425.02L172.776 429.752ZM187.38 427.074C187.38 427.317 187.363 427.529 187.328 427.711H181.816C181.842 428.448 182.046 428.994 182.427 429.349C182.808 429.704 183.281 429.882 183.844 429.882C184.338 429.882 184.754 429.756 185.092 429.505C185.439 429.254 185.651 428.92 185.729 428.504H187.315C187.22 429.007 187.02 429.453 186.717 429.843C186.414 430.233 186.019 430.541 185.534 430.766C185.049 430.983 184.507 431.091 183.909 431.091C183.216 431.091 182.6 430.944 182.063 430.649C181.534 430.354 181.118 429.93 180.815 429.375C180.512 428.82 180.36 428.166 180.36 427.412C180.36 426.667 180.512 426.017 180.815 425.462C181.118 424.907 181.534 424.483 182.063 424.188C182.6 423.893 183.216 423.746 183.909 423.746C184.611 423.746 185.222 423.893 185.742 424.188C186.271 424.474 186.674 424.873 186.951 425.384C187.237 425.887 187.38 426.45 187.38 427.074ZM185.885 427.035C185.902 426.567 185.82 426.177 185.638 425.865C185.465 425.544 185.222 425.31 184.91 425.163C184.607 425.007 184.273 424.929 183.909 424.929C183.328 424.929 182.843 425.107 182.453 425.462C182.063 425.817 181.851 426.342 181.816 427.035H185.885ZM192.815 423.72C193.647 423.72 194.314 423.989 194.817 424.526C195.32 425.063 195.571 425.83 195.571 426.827V431H194.089V426.983C194.089 426.342 193.924 425.848 193.595 425.501C193.266 425.146 192.815 424.968 192.243 424.968C191.654 424.968 191.181 425.159 190.826 425.54C190.471 425.913 190.293 426.463 190.293 427.191V431H188.811V423.837H190.293V425.41C190.484 424.873 190.804 424.457 191.255 424.162C191.706 423.867 192.226 423.72 192.815 423.72ZM206.955 423.837V431H205.46V429.44C205.278 429.969 204.962 430.38 204.511 430.675C204.06 430.961 203.536 431.104 202.938 431.104C202.106 431.104 201.439 430.835 200.936 430.298C200.433 429.761 200.182 428.994 200.182 427.997V423.837H201.664V427.841C201.664 428.491 201.829 428.994 202.158 429.349C202.487 429.696 202.938 429.869 203.51 429.869C204.099 429.869 204.572 429.678 204.927 429.297C205.282 428.916 205.46 428.361 205.46 427.633V423.837H206.955ZM212.734 423.72C213.566 423.72 214.233 423.989 214.736 424.526C215.239 425.063 215.49 425.83 215.49 426.827V431H214.008V426.983C214.008 426.342 213.843 425.848 213.514 425.501C213.185 425.146 212.734 424.968 212.162 424.968C211.573 424.968 211.1 425.159 210.745 425.54C210.39 425.913 210.212 426.463 210.212 427.191V431H208.73V423.837H210.212V425.41C210.403 424.873 210.723 424.457 211.174 424.162C211.625 423.867 212.145 423.72 212.734 423.72ZM223.143 423.746C223.793 423.746 224.348 423.906 224.807 424.227C225.266 424.548 225.591 424.972 225.782 425.501V423.837H227.264V431.078C227.264 431.745 227.125 432.335 226.848 432.846C226.579 433.366 226.189 433.773 225.678 434.068C225.167 434.363 224.56 434.51 223.858 434.51C222.853 434.51 222.038 434.272 221.414 433.795C220.799 433.318 220.413 432.673 220.257 431.858H221.726C221.847 432.283 222.081 432.612 222.428 432.846C222.775 433.089 223.217 433.21 223.754 433.21C224.343 433.21 224.829 433.028 225.21 432.664C225.591 432.3 225.782 431.771 225.782 431.078V429.336C225.591 429.865 225.266 430.289 224.807 430.61C224.348 430.931 223.793 431.091 223.143 431.091C222.519 431.091 221.96 430.944 221.466 430.649C220.981 430.354 220.599 429.93 220.322 429.375C220.045 428.82 219.906 428.166 219.906 427.412C219.906 426.667 220.045 426.017 220.322 425.462C220.599 424.907 220.981 424.483 221.466 424.188C221.96 423.893 222.519 423.746 223.143 423.746ZM223.598 425.046C222.939 425.046 222.411 425.258 222.012 425.683C221.622 426.099 221.427 426.675 221.427 427.412C221.427 428.149 221.622 428.729 222.012 429.154C222.411 429.57 222.939 429.778 223.598 429.778C224.014 429.778 224.387 429.683 224.716 429.492C225.045 429.293 225.305 429.015 225.496 428.66C225.687 428.305 225.782 427.889 225.782 427.412C225.782 426.944 225.687 426.532 225.496 426.177C225.305 425.813 225.045 425.536 224.716 425.345C224.387 425.146 224.014 425.046 223.598 425.046ZM235.699 427.074C235.699 427.317 235.681 427.529 235.647 427.711H230.135C230.161 428.448 230.364 428.994 230.746 429.349C231.127 429.704 231.599 429.882 232.163 429.882C232.657 429.882 233.073 429.756 233.411 429.505C233.757 429.254 233.97 428.92 234.048 428.504H235.634C235.538 429.007 235.339 429.453 235.036 429.843C234.732 430.233 234.338 430.541 233.853 430.766C233.367 430.983 232.826 431.091 232.228 431.091C231.534 431.091 230.919 430.944 230.382 430.649C229.853 430.354 229.437 429.93 229.134 429.375C228.83 428.82 228.679 428.166 228.679 427.412C228.679 426.667 228.83 426.017 229.134 425.462C229.437 424.907 229.853 424.483 230.382 424.188C230.919 423.893 231.534 423.746 232.228 423.746C232.93 423.746 233.541 423.893 234.061 424.188C234.589 424.474 234.992 424.873 235.27 425.384C235.556 425.887 235.699 426.45 235.699 427.074ZM234.204 427.035C234.221 426.567 234.139 426.177 233.957 425.865C233.783 425.544 233.541 425.31 233.229 425.163C232.925 425.007 232.592 424.929 232.228 424.929C231.647 424.929 231.162 425.107 230.772 425.462C230.382 425.817 230.169 426.342 230.135 427.035H234.204ZM239.482 423.746C240.323 423.746 240.995 423.963 241.497 424.396C242.009 424.821 242.321 425.393 242.433 426.112H241.029C240.969 425.722 240.8 425.41 240.522 425.176C240.254 424.933 239.894 424.812 239.443 424.812C239.071 424.812 238.78 424.903 238.572 425.085C238.373 425.258 238.273 425.497 238.273 425.8C238.273 426.025 238.347 426.207 238.494 426.346C238.642 426.485 238.824 426.593 239.04 426.671C239.266 426.749 239.582 426.836 239.989 426.931C240.527 427.052 240.96 427.178 241.289 427.308C241.627 427.438 241.913 427.646 242.147 427.932C242.39 428.209 242.511 428.591 242.511 429.076C242.511 429.674 242.282 430.159 241.822 430.532C241.372 430.905 240.761 431.091 239.989 431.091C239.097 431.091 238.373 430.883 237.818 430.467C237.272 430.051 236.943 429.47 236.83 428.725H238.273C238.317 429.115 238.49 429.431 238.793 429.674C239.097 429.917 239.495 430.038 239.989 430.038C240.345 430.038 240.622 429.947 240.821 429.765C241.029 429.574 241.133 429.336 241.133 429.05C241.133 428.799 241.055 428.599 240.899 428.452C240.743 428.305 240.548 428.192 240.314 428.114C240.08 428.027 239.76 427.941 239.352 427.854C238.832 427.733 238.408 427.611 238.078 427.49C237.758 427.369 237.48 427.174 237.246 426.905C237.021 426.628 236.908 426.255 236.908 425.787C236.908 425.18 237.134 424.691 237.584 424.318C238.044 423.937 238.676 423.746 239.482 423.746ZM247.599 429.713V431H246.689C245.926 431 245.345 430.818 244.947 430.454C244.557 430.081 244.362 429.466 244.362 428.608V425.098H243.335V423.837H244.362V422.056H245.857V423.837H247.586V425.098H245.857V428.634C245.857 429.041 245.93 429.323 246.078 429.479C246.234 429.635 246.502 429.713 246.884 429.713H247.599ZM255.643 427.074C255.643 427.317 255.626 427.529 255.591 427.711H250.079C250.105 428.448 250.309 428.994 250.69 429.349C251.071 429.704 251.544 429.882 252.107 429.882C252.601 429.882 253.017 429.756 253.355 429.505C253.702 429.254 253.914 428.92 253.992 428.504H255.578C255.483 429.007 255.283 429.453 254.98 429.843C254.677 430.233 254.282 430.541 253.797 430.766C253.312 430.983 252.77 431.091 252.172 431.091C251.479 431.091 250.863 430.944 250.326 430.649C249.797 430.354 249.381 429.93 249.078 429.375C248.775 428.82 248.623 428.166 248.623 427.412C248.623 426.667 248.775 426.017 249.078 425.462C249.381 424.907 249.797 424.483 250.326 424.188C250.863 423.893 251.479 423.746 252.172 423.746C252.874 423.746 253.485 423.893 254.005 424.188C254.534 424.474 254.937 424.873 255.214 425.384C255.5 425.887 255.643 426.45 255.643 427.074ZM254.148 427.035C254.165 426.567 254.083 426.177 253.901 425.865C253.728 425.544 253.485 425.31 253.173 425.163C252.87 425.007 252.536 424.929 252.172 424.929C251.591 424.929 251.106 425.107 250.716 425.462C250.326 425.817 250.114 426.342 250.079 427.035H254.148Z" fill="black"/>
<path d="M84 414C90.6274 414 96 419.373 96 426C96 432.627 90.6274 438 84 438C77.3726 438 72 432.627 72 426C72 419.373 77.3726 414 84 414Z" fill="black"/>
<path d="M87.4937 422.758C87.8383 422.414 88.397 422.414 88.7416 422.758C89.0862 423.103 89.0862 423.662 88.7416 424.006L83.4475 429.3C83.1029 429.645 82.5442 429.645 82.1996 429.3L79.2584 426.359C78.9139 426.015 78.9139 425.456 79.2584 425.111C79.603 424.767 80.1617 424.767 80.5063 425.111L82.8235 427.429L87.4937 422.758Z" fill="white"/>
<rect x="72" y="325" width="342" height="1" fill="#E0ECDE"/>
<rect x="72" y="392" width="342" height="1" fill="#E0ECDE"/>
<defs>
<filter id="filter0_d" x="55" y="50" width="342" height="141" filterUnits="userSpaceOnUse" color-interpolation-filters="sRGB">
<feFlood flood-opacity="0" result="BackgroundImageFix"/>
<feColorMatrix in="SourceAlpha" type="matrix" values="0 0 0 0 0 0 0 0 0 0 0 0 0 0 0 0 0 0 127 0"/>
<feOffset dy="13"/>
<feGaussianBlur stdDeviation="17"/>
<feColorMatrix type="matrix" values="0 0 0 0 0 0 0 0 0 0 0 0 0 0 0 0 0 0 0.14902 0"/>
<feBlend mode="normal" in2="BackgroundImageFix" result="effect1_dropShadow"/>
<feBlend mode="normal" in="SourceGraphic" in2="effect1_dropShadow" result="shape"/>
</filter>
<filter id="filter1_d" x="337" y="61" width="44" height="44" filterUnits="userSpaceOnUse" color-interpolation-filters="sRGB">
<feFlood flood-opacity="0" result="BackgroundImageFix"/>
<feColorMatrix in="SourceAlpha" type="matrix" values="0 0 0 0 0 0 0 0 0 0 0 0 0 0 0 0 0 0 127 0"/>
<feOffset dx="5" dy="3"/>
<feGaussianBlur stdDeviation="6.5"/>
<feColorMatrix type="matrix" values="0 0 0 0 0 0 0 0 0 0 0 0 0 0 0 0 0 0 0.211765 0"/>
<feBlend mode="normal" in2="BackgroundImageFix" result="effect1_dropShadow"/>
<feBlend mode="normal" in="SourceGraphic" in2="effect1_dropShadow" result="shape"/>
</filter>
<linearGradient id="paint0_linear" x1="131.465" y1="77.0177" x2="131.465" y2="289.025" gradientUnits="userSpaceOnUse">
<stop stop-color="white" stop-opacity="0.490196"/>
<stop offset="1" stop-color="white"/>
</linearGradient>
</defs>
</svg>
